<?xml version="1.0" encoding="UTF-8" standalone="no"?>
<!-- Created with Inkscape (http://www.inkscape.org/) -->

<svg
   xmlns:dc="http://purl.org/dc/elements/1.1/"
   xmlns:cc="http://creativecommons.org/ns#"
   xmlns:rdf="http://www.w3.org/1999/02/22-rdf-syntax-ns#"
   xmlns:svg="http://www.w3.org/2000/svg"
   xmlns="http://www.w3.org/2000/svg"
   xmlns:sodipodi="http://sodipodi.sourceforge.net/DTD/sodipodi-0.dtd"
   xmlns:inkscape="http://www.inkscape.org/namespaces/inkscape"
   width="210mm"
   height="297mm"
   id="svg2"
   version="1.1"
   inkscape:version="0.48.4 r9939"
   sodipodi:docname="bpelLint2.svg"
   inkscape:export-filename="C:\Users\Christian\Desktop\bpelLint2.png"
   inkscape:export-xdpi="300.04001"
   inkscape:export-ydpi="300.04001">
  <defs
     id="defs4">
    <filter
       id="filter4401"
       inkscape:menu-tooltip="3D warped, fibered wood texture"
       inkscape:menu="Materials"
       inkscape:label="3D wood"
       height="1.5"
       y="-0.25"
       width="1.5"
       x="-0.25"
       color-interpolation-filters="sRGB">
      <feGaussianBlur
         id="feGaussianBlur4403"
         result="result8"
         stdDeviation="4" />
      <feTurbulence
         id="feTurbulence4405"
         baseFrequency="0.025 0.2"
         numOctaves="3"
         type="fractalNoise"
         result="result7"
         seed="22" />
      <feComposite
         id="feComposite4407"
         in2="result8"
         operator="in"
         in="SourceGraphic"
         result="result6" />
      <feDisplacementMap
         id="feDisplacementMap4409"
         in2="result6"
         result="result4"
         scale="50"
         yChannelSelector="A"
         xChannelSelector="A"
         in="result7" />
      <feFlood
         id="feFlood4411"
         flood-color="rgb(230,211,138)"
         flood-opacity="1"
         in="result4"
         result="result9" />
      <feComposite
         id="feComposite4413"
         in2="result4"
         operator="atop"
         result="result2" />
      <feComposite
         id="feComposite4415"
         in2="SourceGraphic"
         operator="atop"
         in="result2"
         result="result9" />
      <feGaussianBlur
         id="feGaussianBlur4417"
         result="result0"
         in="result9"
         stdDeviation="8" />
      <feSpecularLighting
         id="feSpecularLighting4419"
         specularExponent="15"
         specularConstant="0.7"
         surfaceScale="5"
         lighting-color="rgb(255,255,255)"
         result="result1"
         in="result0">
        <feDistantLight
           id="feDistantLight4421"
           azimuth="235"
           elevation="50" />
      </feSpecularLighting>
      <feComposite
         id="feComposite4423"
         in2="result9"
         operator="in"
         result="result2"
         in="result1" />
      <feComposite
         id="feComposite4425"
         in2="result2"
         k3="0.5"
         k2="0.5"
         operator="arithmetic"
         result="result4"
         in="result9" />
      <feConvolveMatrix
         id="feConvolveMatrix4427"
         order="3 3"
         kernelMatrix="2 0 0 0 2 0 0 0 -2 "
         targetX="2"
         targetY="2"
         result="result10" />
      <feBlend
         id="feBlend4429"
         in2="result10"
         mode="multiply"
         in="result10" />
    </filter>
    <filter
       id="filter4556"
       inkscape:menu-tooltip="Basic noise fill texture; adjust color in Flood"
       inkscape:menu="ABCs"
       inkscape:label="Noise fill"
       color-interpolation-filters="sRGB">
      <feGaussianBlur
         id="feGaussianBlur4558"
         stdDeviation="2"
         in="SourceAlpha"
         result="result0" />
      <feComposite
         id="feComposite4560"
         in2="result0"
         result="result3"
         operator="arithmetic"
         in="SourceGraphic"
         k2="1"
         k3="10" />
      <feComposite
         id="feComposite4562"
         in2="result3"
         k2="1"
         operator="in"
         in="result3"
         result="fbSourceGraphic" />
      <feColorMatrix
         result="fbSourceGraphicAlpha"
         in="fbSourceGraphic"
         values="0 0 0 -1 0 0 0 0 -1 0 0 0 0 -1 0 0 0 0 1 0"
         id="feColorMatrix4564" />
      <feGaussianBlur
         id="feGaussianBlur4566"
         stdDeviation="3"
         in="fbSourceGraphic"
         result="fbSourceGraphic" />
      <feColorMatrix
         result="fbSourceGraphicAlpha"
         in="fbSourceGraphic"
         values="0 0 0 -1 0 0 0 0 -1 0 0 0 0 -1 0 0 0 0 1 0"
         id="feColorMatrix4584" />
      <feTurbulence
         id="feTurbulence4586"
         numOctaves="5"
         baseFrequency="0.02"
         type="fractalNoise"
         in="fbSourceGraphic" />
      <feColorMatrix
         id="feColorMatrix4588"
         result="result0"
         values="1 0 0 0 0 0 1 0 0 0 0 0 1 0 0 0 0 0 3 -1 " />
      <feFlood
         id="feFlood4590"
         flood-opacity="1"
         flood-color="rgb(145,199,195)"
         result="result1" />
      <feBlend
         id="feBlend4592"
         in2="fbSourceGraphic"
         mode="normal"
         in="result1"
         result="result4" />
      <feComposite
         id="feComposite4594"
         in2="result0"
         operator="out"
         result="result5" />
      <feComposite
         id="feComposite4596"
         in2="fbSourceGraphic"
         operator="atop" />
    </filter>
    <filter
       inkscape:collect="always"
       id="filter4598">
      <feGaussianBlur
         inkscape:collect="always"
         stdDeviation="3.4319933"
         id="feGaussianBlur4600" />
    </filter>
    <filter
       id="filter4613"
       x="-0.2"
       width="1.4"
       y="-0.2"
       height="1.4"
       inkscape:menu-tooltip="Marbled transparency effect which conforms to image detected edges"
       inkscape:menu="Image effects, transparent"
       inkscape:label="Marbled ink"
       color-interpolation-filters="sRGB">
      <feGaussianBlur
         id="feGaussianBlur4615"
         result="result9"
         in="SourceGraphic"
         stdDeviation="2" />
      <feTurbulence
         id="feTurbulence4617"
         baseFrequency="0.06"
         numOctaves="10"
         type="fractalNoise"
         result="result7"
         seed="0" />
      <feColorMatrix
         id="feColorMatrix4619"
         values="1 0 0 0 0 0 1 0 0 0 0 0 1 0 0 0 0 0 1.5 -0.3 "
         result="result5" />
      <feComposite
         id="feComposite4621"
         in2="result5"
         in="result9"
         operator="out"
         result="result6" />
      <feGaussianBlur
         id="feGaussianBlur4623"
         result="result10"
         stdDeviation="0.5" />
      <feDisplacementMap
         id="feDisplacementMap4625"
         in2="result10"
         result="result4"
         scale="120"
         yChannelSelector="G"
         xChannelSelector="A"
         in="result5" />
      <feComposite
         id="feComposite4627"
         in2="result4"
         in="result9"
         operator="in"
         result="result2" />
      <feComposite
         id="feComposite4629"
         in2="SourceGraphic"
         operator="in"
         in="result2"
         result="fbSourceGraphic" />
      <feBlend
         id="feBlend4631"
         in2="result2"
         mode="multiply" />
    </filter>
    <filter
       id="filter30552"
       inkscape:label="Simple blur"
       inkscape:menu="ABCs"
       inkscape:menu-tooltip="Simple Gaussian blur, same as the blur slider in Fill and Stroke dialog"
       color-interpolation-filters="sRGB">
      <feGaussianBlur
         id="feGaussianBlur30554"
         stdDeviation="3" />
    </filter>
    <filter
       id="filter30552-1"
       inkscape:label="Simple blur"
       inkscape:menu="ABCs"
       inkscape:menu-tooltip="Simple Gaussian blur, same as the blur slider in Fill and Stroke dialog"
       color-interpolation-filters="sRGB">
      <feGaussianBlur
         id="feGaussianBlur30554-2"
         stdDeviation="3" />
    </filter>
    <filter
       color-interpolation-filters="sRGB"
       inkscape:collect="always"
       id="filter4598-7">
      <feGaussianBlur
         inkscape:collect="always"
         stdDeviation="3.4319933"
         id="feGaussianBlur4600-4" />
    </filter>
    <filter
       inkscape:collect="always"
       id="filter4683"
       x="-0.021270493"
       width="1.042541"
       y="-0.11706762"
       height="1.2341352">
      <feGaussianBlur
         inkscape:collect="always"
         stdDeviation="1.5397939"
         id="feGaussianBlur4685" />
    </filter>
  </defs>
  <sodipodi:namedview
     id="base"
     pagecolor="#ffffff"
     bordercolor="#666666"
     borderopacity="1.0"
     inkscape:pageopacity="0.0"
     inkscape:pageshadow="2"
     inkscape:zoom="0.98994949"
     inkscape:cx="381.65029"
     inkscape:cy="222.06652"
     inkscape:document-units="px"
     inkscape:current-layer="layer1"
     showgrid="false"
     inkscape:window-width="1920"
     inkscape:window-height="1137"
     inkscape:window-x="-8"
     inkscape:window-y="-8"
     inkscape:window-maximized="0" />
  <metadata
     id="metadata7">
    <rdf:RDF>
      <cc:Work
         rdf:about="">
        <dc:format>image/svg+xml</dc:format>
        <dc:type
           rdf:resource="http://purl.org/dc/dcmitype/StillImage" />
        <dc:title />
      </cc:Work>
    </rdf:RDF>
  </metadata>
  <g
     inkscape:label="Ebene 1"
     inkscape:groupmode="layer"
     id="layer1">
    <path
       style="fill:none;stroke:#000000;stroke-opacity:1;filter:url(#filter4683)"
       d="m 528.81486,768.76186 -107.54386,83.5763 51.66242,-89.42801 c 17.59366,-3.64286 0.18926,-6.41916 55.88144,5.85171 z"
       id="path30598-9"
       inkscape:connector-curvature="0"
       sodipodi:nodetypes="cccc" />
    <path
       style="fill:#00a080;stroke:none;fill-opacity:1"
       d="m 528.81486,768.76186 -107.54386,83.5763 51.66242,-89.42801 55.88144,-0.46175 z"
       id="path30598"
       inkscape:connector-curvature="0"
       sodipodi:nodetypes="ccccc" />
    <rect
       style="opacity:0.8;fill:#000000;fill-opacity:1;stroke:none"
       id="rect26922"
       width="178.24731"
       height="80.758286"
       x="177.42068"
       y="681.51935" />
    <path
       style="fill:#000000;stroke:#000000;stroke-width:1px;stroke-linecap:butt;stroke-linejoin:miter;stroke-opacity:1;filter:url(#filter4598)"
       d="m 504.60493,764.9152 0,-84.71067 24.56599,-4.29315 c 0,28.11591 0,65.93868 0,94.05459 z"
       id="path4568"
       inkscape:connector-curvature="0"
       sodipodi:nodetypes="ccccc" />
    <rect
       style="opacity:0.8;fill:#ffffff;fill-opacity:1;stroke:none"
       id="rect26922-4"
       width="152.53304"
       height="75.849701"
       x="353.73349"
       y="681.25177" />
    <path
       style="fill:#00be98;fill-opacity:1;stroke:none"
       d="M 154.15625 674.5 L 172.875 685.6875 C 172.875 685.6875 173.88008 686.67989 173.375 687.4375 C 172.86992 688.19512 171.46875 687.5625 171.46875 687.5625 L 152 676.09375 L 152 767.96875 L 171.15625 756.6875 C 171.15625 756.6875 172.52617 756.08613 173.03125 756.84375 C 173.53633 757.60136 172.53125 758.59375 172.53125 758.59375 L 154.46875 769.40625 L 529.15625 769.40625 L 529.15625 674.5 L 154.15625 674.5 z M 495.53125 680.4375 C 489.36703 687.45931 484.2741 697.2719 481.34375 706.71875 C 494.07002 708.65818 497.27095 716.39054 481.9375 715.09375 C 481.04596 715.01835 480.201 714.91931 479.375 714.8125 C 478.63305 719.0482 478.42494 723.0012 478.90625 726.34375 C 480.70508 738.83597 486.29458 741.42266 494.09375 744.09375 C 488.62466 748.20761 480.07616 749.40441 474.03125 741 C 469.47806 734.66956 468.87072 722.85711 471.3125 713.03125 C 464.05135 710.47729 463.72813 706.69092 473.625 706.3125 C 473.95093 705.60535 474.29068 704.93046 474.65625 704.28125 C 480.43496 694.01898 485.82753 685.36655 495.53125 680.4375 z M 414.1875 684.9375 C 414.56087 684.9233 414.92887 684.9258 415.28125 684.9375 C 417.84402 685.0225 419.81142 685.81142 420.53125 687.71875 C 422.83471 693.8222 414.89764 702.29086 405.28125 712.34375 C 399.26089 718.63738 390.14985 727.63856 379.25 735.75 C 380.77157 738.04055 383.00338 739.78734 385.875 740.75 C 393.8885 743.43641 401.40407 739.94234 409.125 741.0625 C 405.05223 745.8625 399.90831 747.31738 391.96875 748.9375 C 385.87368 750.18124 377.23143 746.7051 372.5 740.5 C 367.90977 743.51515 363.0611 746.28776 358.0625 748.5625 C 361.77514 744.65824 365.92003 740.52275 370.15625 736.40625 C 369.86991 735.68447 369.61329 734.95409 369.4375 734.1875 C 367.14061 724.17111 373.71878 712.03978 379.21875 705.28125 C 384.71872 698.52272 389.64589 694.27075 396.4375 690.5625 C 400.81491 688.17242 408.58691 685.15125 414.1875 684.9375 z M 242.9375 691.65625 C 246.12451 691.63675 249.55281 691.76121 253.53125 692.21875 C 264.14043 693.43887 268.39879 702.67365 268.53125 710.96875 C 268.66371 719.26385 266.05146 726.13099 260.1875 728.1875 C 254.32354 730.24401 247.98116 730.2047 241.09375 730.25 C 238.75186 729.59721 239.25775 732.1731 239.25 733.59375 L 239.25 749.53125 L 227.5625 749.53125 L 227.5625 692.0625 C 232.96882 692.1199 237.62581 691.68871 242.9375 691.65625 z M 194.375 692.03125 C 198.98724 692.02148 203.61016 692.05094 207.9375 692.15625 C 213.40369 692.54857 218.84426 696.28897 220.03125 701.84375 C 221.23158 706.61241 220.65808 711.88956 218.3125 716.21875 C 216.40576 718.81339 212.80152 719.89503 209.96875 720.40625 C 215.99053 720.7428 221.4716 725.5713 222.1875 731.625 C 222.95824 736.59959 222.1039 741.8855 219.78125 746.34375 C 216.81715 750.4588 211.29224 751.33164 206.5625 751.5 C 198.36797 751.5421 190.16442 751.52215 181.96875 751.53125 L 194.34375 743.09375 C 198.9359 742.9783 202.89908 743.37138 207.46875 742.875 C 210.56318 742.21743 212.74062 739.28052 212.90625 736.1875 C 213.53119 732.52529 212.17872 728.04772 208.40625 726.65625 C 204.95603 725.31502 201.19674 726.08117 197.59375 725.875 L 193.65625 725.875 L 193.65625 715.5 C 198.07192 715.35382 202.5609 715.84132 206.9375 715.15625 C 211.45454 713.86969 212.86782 708.17647 211.28125 704.1875 C 210.42997 701.73134 207.8928 700.0341 205.28125 700.40625 C 201.41794 700.60292 197.52442 700.4584 193.65625 700.5 L 180.8125 692.0625 C 185.14138 692.08995 189.76276 692.04102 194.375 692.03125 z M 410 692.03125 C 409.14118 692.08515 408.01709 692.30433 406.59375 692.6875 C 395.20702 695.7529 382.22439 709.2827 378.5 719.3125 C 377.11223 723.04978 376.68554 726.62539 377.09375 729.75 C 386.06296 721.2149 394.78824 713.12925 400.4375 707.46875 C 409.00951 698.87968 416.01174 691.65384 410 692.03125 z M 272.71875 692.0625 L 307.71875 692.0625 L 307.71875 702.5 L 284.4375 702.5 L 284.4375 715.5 L 303.84375 715.5 L 303.84375 725.875 L 284.4375 725.875 L 284.4375 739.09375 L 308.0625 739.09375 L 308.0625 749.53125 L 272.71875 749.53125 L 272.71875 692.0625 z M 312.625 692.0625 L 324.3125 692.0625 L 324.3125 739.09375 L 349.25 739.09375 L 349.25 749.53125 L 312.625 749.53125 L 312.625 692.0625 z M 179.78125 693.6875 L 191.65625 701.53125 L 191.65625 742.1875 L 179.9375 750 L 179.78125 693.6875 z M 244.78125 702.46875 C 242.94396 702.48055 241.0869 702.5281 239.25 702.5 L 239.25 720.03125 C 243.83521 719.85188 248.50345 720.46605 253.03125 719.5625 C 256.35505 718.45584 257.63716 714.61723 257.46875 711.40625 L 257.46875 711.03125 L 257.46875 710.65625 C 257.78595 706.64122 254.53721 702.30684 250.28125 702.5625 C 248.44525 702.4751 246.61854 702.45685 244.78125 702.46875 z M 432.9375 702.6875 C 433.88174 702.6532 434.86554 702.82785 435.78125 703.25 C 440.66501 705.50144 433.60436 715.69512 429 710.8125 C 425.25897 706.84538 428.8458 702.83629 432.9375 702.6875 z M 430 721.375 C 422.33265 723.58423 421.74541 733.63841 423.75 739.46875 C 425.75459 745.29908 425.90453 754.07961 418.03125 750.125 C 410.15797 746.17039 411.34619 738.7816 414.59375 733.09375 C 417.84131 727.40589 423.48762 722.76566 430 721.375 z M 442.40625 728.21875 C 442.34875 732.15785 437.90017 741.89428 441.84375 741.875 C 445.8449 737.59142 449.09103 729.63018 456.0625 731.25 C 463.03396 732.86981 471.20733 741.61231 465.96875 747.3125 C 460.73017 753.01269 456.708 732.66795 450.625 740.28125 C 444.54199 747.89454 432.40362 751.83957 431.90625 743.1875 C 431.40888 734.53544 435.23139 728.96548 442.40625 728.21875 z "
       id="rect4154" />
  </g>
</svg>
