<?xml version="1.0" encoding="UTF-8" standalone="no"?>
<!-- Created with Inkscape (http://www.inkscape.org/) -->

<svg
   xmlns:dc="http://purl.org/dc/elements/1.1/"
   xmlns:cc="http://creativecommons.org/ns#"
   xmlns:rdf="http://www.w3.org/1999/02/22-rdf-syntax-ns#"
   xmlns:svg="http://www.w3.org/2000/svg"
   xmlns="http://www.w3.org/2000/svg"
   xmlns:sodipodi="http://sodipodi.sourceforge.net/DTD/sodipodi-0.dtd"
   xmlns:inkscape="http://www.inkscape.org/namespaces/inkscape"
   width="210mm"
   height="297mm"
   id="svg2"
   version="1.1"
   inkscape:version="0.48.4 r9939"
   sodipodi:docname="bpelLint4.svg"
   inkscape:export-filename="C:\Users\Christian\Desktop\bpelLint4.png"
   inkscape:export-xdpi="300.04001"
   inkscape:export-ydpi="300.04001">
  <defs
     id="defs4">
    <filter
       id="filter4401"
       inkscape:menu-tooltip="3D warped, fibered wood texture"
       inkscape:menu="Materials"
       inkscape:label="3D wood"
       height="1.5"
       y="-0.25"
       width="1.5"
       x="-0.25"
       color-interpolation-filters="sRGB">
      <feGaussianBlur
         id="feGaussianBlur4403"
         result="result8"
         stdDeviation="4" />
      <feTurbulence
         id="feTurbulence4405"
         baseFrequency="0.025 0.2"
         numOctaves="3"
         type="fractalNoise"
         result="result7"
         seed="22" />
      <feComposite
         id="feComposite4407"
         in2="result8"
         operator="in"
         in="SourceGraphic"
         result="result6" />
      <feDisplacementMap
         id="feDisplacementMap4409"
         in2="result6"
         result="result4"
         scale="50"
         yChannelSelector="A"
         xChannelSelector="A"
         in="result7" />
      <feFlood
         id="feFlood4411"
         flood-color="rgb(230,211,138)"
         flood-opacity="1"
         in="result4"
         result="result9" />
      <feComposite
         id="feComposite4413"
         in2="result4"
         operator="atop"
         result="result2" />
      <feComposite
         id="feComposite4415"
         in2="SourceGraphic"
         operator="atop"
         in="result2"
         result="result9" />
      <feGaussianBlur
         id="feGaussianBlur4417"
         result="result0"
         in="result9"
         stdDeviation="8" />
      <feSpecularLighting
         id="feSpecularLighting4419"
         specularExponent="15"
         specularConstant="0.7"
         surfaceScale="5"
         lighting-color="rgb(255,255,255)"
         result="result1"
         in="result0">
        <feDistantLight
           id="feDistantLight4421"
           azimuth="235"
           elevation="50" />
      </feSpecularLighting>
      <feComposite
         id="feComposite4423"
         in2="result9"
         operator="in"
         result="result2"
         in="result1" />
      <feComposite
         id="feComposite4425"
         in2="result2"
         k3="0.5"
         k2="0.5"
         operator="arithmetic"
         result="result4"
         in="result9" />
      <feConvolveMatrix
         id="feConvolveMatrix4427"
         order="3 3"
         kernelMatrix="2 0 0 0 2 0 0 0 -2 "
         targetX="2"
         targetY="2"
         result="result10" />
      <feBlend
         id="feBlend4429"
         in2="result10"
         mode="multiply"
         in="result10" />
    </filter>
    <filter
       id="filter4556"
       inkscape:menu-tooltip="Basic noise fill texture; adjust color in Flood"
       inkscape:menu="ABCs"
       inkscape:label="Noise fill"
       color-interpolation-filters="sRGB">
      <feGaussianBlur
         id="feGaussianBlur4558"
         stdDeviation="2"
         in="SourceAlpha"
         result="result0" />
      <feComposite
         id="feComposite4560"
         in2="result0"
         result="result3"
         operator="arithmetic"
         in="SourceGraphic"
         k2="1"
         k3="10" />
      <feComposite
         id="feComposite4562"
         in2="result3"
         k2="1"
         operator="in"
         in="result3"
         result="fbSourceGraphic" />
      <feColorMatrix
         result="fbSourceGraphicAlpha"
         in="fbSourceGraphic"
         values="0 0 0 -1 0 0 0 0 -1 0 0 0 0 -1 0 0 0 0 1 0"
         id="feColorMatrix4564" />
      <feGaussianBlur
         id="feGaussianBlur4566"
         stdDeviation="3"
         in="fbSourceGraphic"
         result="fbSourceGraphic" />
      <feColorMatrix
         result="fbSourceGraphicAlpha"
         in="fbSourceGraphic"
         values="0 0 0 -1 0 0 0 0 -1 0 0 0 0 -1 0 0 0 0 1 0"
         id="feColorMatrix4584" />
      <feTurbulence
         id="feTurbulence4586"
         numOctaves="5"
         baseFrequency="0.02"
         type="fractalNoise"
         in="fbSourceGraphic" />
      <feColorMatrix
         id="feColorMatrix4588"
         result="result0"
         values="1 0 0 0 0 0 1 0 0 0 0 0 1 0 0 0 0 0 3 -1 " />
      <feFlood
         id="feFlood4590"
         flood-opacity="1"
         flood-color="rgb(145,199,195)"
         result="result1" />
      <feBlend
         id="feBlend4592"
         in2="fbSourceGraphic"
         mode="normal"
         in="result1"
         result="result4" />
      <feComposite
         id="feComposite4594"
         in2="result0"
         operator="out"
         result="result5" />
      <feComposite
         id="feComposite4596"
         in2="fbSourceGraphic"
         operator="atop" />
    </filter>
    <filter
       inkscape:collect="always"
       id="filter4598">
      <feGaussianBlur
         inkscape:collect="always"
         stdDeviation="3.4319933"
         id="feGaussianBlur4600" />
    </filter>
    <filter
       id="filter4613"
       x="-0.2"
       width="1.4"
       y="-0.2"
       height="1.4"
       inkscape:menu-tooltip="Marbled transparency effect which conforms to image detected edges"
       inkscape:menu="Image effects, transparent"
       inkscape:label="Marbled ink"
       color-interpolation-filters="sRGB">
      <feGaussianBlur
         id="feGaussianBlur4615"
         result="result9"
         in="SourceGraphic"
         stdDeviation="2" />
      <feTurbulence
         id="feTurbulence4617"
         baseFrequency="0.06"
         numOctaves="10"
         type="fractalNoise"
         result="result7"
         seed="0" />
      <feColorMatrix
         id="feColorMatrix4619"
         values="1 0 0 0 0 0 1 0 0 0 0 0 1 0 0 0 0 0 1.5 -0.3 "
         result="result5" />
      <feComposite
         id="feComposite4621"
         in2="result5"
         in="result9"
         operator="out"
         result="result6" />
      <feGaussianBlur
         id="feGaussianBlur4623"
         result="result10"
         stdDeviation="0.5" />
      <feDisplacementMap
         id="feDisplacementMap4625"
         in2="result10"
         result="result4"
         scale="120"
         yChannelSelector="G"
         xChannelSelector="A"
         in="result5" />
      <feComposite
         id="feComposite4627"
         in2="result4"
         in="result9"
         operator="in"
         result="result2" />
      <feComposite
         id="feComposite4629"
         in2="SourceGraphic"
         operator="in"
         in="result2"
         result="fbSourceGraphic" />
      <feBlend
         id="feBlend4631"
         in2="result2"
         mode="multiply" />
    </filter>
    <filter
       id="filter30552"
       inkscape:label="Simple blur"
       inkscape:menu="ABCs"
       inkscape:menu-tooltip="Simple Gaussian blur, same as the blur slider in Fill and Stroke dialog"
       color-interpolation-filters="sRGB">
      <feGaussianBlur
         id="feGaussianBlur30554"
         stdDeviation="3" />
    </filter>
    <filter
       id="filter30552-1"
       inkscape:label="Simple blur"
       inkscape:menu="ABCs"
       inkscape:menu-tooltip="Simple Gaussian blur, same as the blur slider in Fill and Stroke dialog"
       color-interpolation-filters="sRGB">
      <feGaussianBlur
         id="feGaussianBlur30554-2"
         stdDeviation="3" />
    </filter>
    <filter
       inkscape:collect="always"
       id="filter4647">
      <feGaussianBlur
         inkscape:collect="always"
         stdDeviation="3.6657845"
         id="feGaussianBlur4649" />
    </filter>
    <filter
       inkscape:collect="always"
       id="filter4651">
      <feGaussianBlur
         inkscape:collect="always"
         stdDeviation="3.6657845"
         id="feGaussianBlur4653" />
    </filter>
    <filter
       color-interpolation-filters="sRGB"
       inkscape:collect="always"
       id="filter4647-4">
      <feGaussianBlur
         inkscape:collect="always"
         stdDeviation="3.6657845"
         id="feGaussianBlur4649-0" />
    </filter>
    <filter
       color-interpolation-filters="sRGB"
       inkscape:collect="always"
       id="filter4647-4-4">
      <feGaussianBlur
         inkscape:collect="always"
         stdDeviation="3.6657845"
         id="feGaussianBlur4649-0-8" />
    </filter>
    <filter
       inkscape:collect="always"
       id="filter4710">
      <feGaussianBlur
         inkscape:collect="always"
         stdDeviation="4.8589285"
         id="feGaussianBlur4712" />
    </filter>
  </defs>
  <sodipodi:namedview
     id="base"
     pagecolor="#ffffff"
     bordercolor="#666666"
     borderopacity="1.0"
     inkscape:pageopacity="0.0"
     inkscape:pageshadow="2"
     inkscape:zoom="1.4"
     inkscape:cx="129.11183"
     inkscape:cy="253.51343"
     inkscape:document-units="px"
     inkscape:current-layer="layer1"
     showgrid="false"
     inkscape:window-width="1920"
     inkscape:window-height="1137"
     inkscape:window-x="-8"
     inkscape:window-y="-8"
     inkscape:window-maximized="0" />
  <metadata
     id="metadata7">
    <rdf:RDF>
      <cc:Work
         rdf:about="">
        <dc:format>image/svg+xml</dc:format>
        <dc:type
           rdf:resource="http://purl.org/dc/dcmitype/StillImage" />
        <dc:title></dc:title>
      </cc:Work>
    </rdf:RDF>
  </metadata>
  <g
     inkscape:label="Ebene 1"
     inkscape:groupmode="layer"
     id="layer1">
    <path
       style="fill:#000000;stroke:none;stroke-width:1px;stroke-linecap:butt;stroke-linejoin:miter;stroke-opacity:1;filter:url(#filter4710)"
       d="m 117.71429,822.07647 127.85714,123.57143 255,-265 -10.71429,6.35714 L 246.28571,939.93361 127.71429,824.21933 z"
       id="path4704"
       inkscape:connector-curvature="0"
       sodipodi:nodetypes="ccccccc" />
    <path
       style="fill:#55ddff;fill-opacity:1;stroke:none"
       d="m 439.00893,610.32143 -198.6875,206.09375 -65.90625,-64 -63.375,65.25 134.5312,130.06255 261.75,-271.53125 -68.3125,-65.875 z m -19.0625,28.3125 c 0.77684,9.31128 4.29534,19.8025 9.0625,28.46875 10.22898,-7.81584 18.01334,-4.76384 6.4375,5.375 -0.67307,0.5895 -1.31856,1.13573 -1.96875,1.65625 2.53442,3.47395 5.22832,6.37034 7.96875,8.34375 10.2419,7.37528 15.97646,5.13592 23.3125,1.375 -0.8342,6.79257 -5.91023,13.79377 -16.15625,12.3125 -7.71759,-1.1157 -16.62089,-8.89117 -22,-17.46875 -6.87829,3.45486 -9.84654,1.07512 -3.25,-6.3125 -0.28288,-0.72545 -0.53634,-1.44248 -0.75,-2.15625 -3.37729,-11.2828 -5.84264,-21.1868 -2.65625,-31.59375 z m -24.15625,58.65625 c 4.37178,-0.27401 6.13511,10.41315 -0.15625,10.34375 -5.4525,-0.0602 -5.85775,-5.41976 -3.125,-8.46875 0.63066,-0.70358 1.43553,-1.32126 2.375,-1.6875 0.31315,-0.12208 0.6148,-0.16923 0.90625,-0.1875 z m -24.09375,0.0937 c 0.47336,0.004 0.96932,0.11111 1.4375,0.3125 5.99274,2.57782 6.56202,14.1622 7.125,28.0625 0.35246,8.70232 0.50674,21.52318 -1.21875,35 2.70507,0.49436 5.53264,0.0867 8.21875,-1.3125 7.49581,-3.90458 10.17856,-11.75023 16.34375,-16.53125 0.62889,6.26354 -1.87462,11.00344 -6.21875,17.84375 -3.33493,5.2512 -11.84269,9.05667 -19.59375,8.15625 -1.0152,5.39729 -2.38709,10.79135 -4.21875,15.96875 -0.23399,-5.38259 -0.32036,-11.21817 -0.34375,-17.125 -0.71836,-0.29481 -1.45112,-0.62575 -2.125,-1.03125 -8.80519,-5.29835 -12.95168,-18.44341 -14,-27.09375 -1.04833,-8.65034 -0.70036,-15.16184 1.34375,-22.625 1.31749,-4.81024 4.54801,-12.50715 8.28125,-16.6875 0.24892,-0.27865 0.497,-0.53568 0.75,-0.78125 1.37993,-1.3395 2.79867,-2.16803 4.21875,-2.15625 z m 65.78125,2.46875 c 5.01298,-0.21787 9.80136,1.67024 10.09375,6.5 0.46783,7.72761 -16.97779,-3.50709 -15.71875,6.15625 1.25903,9.66334 -4.33223,21.14695 -10.90625,15.5 -6.57401,-5.64693 -7.91091,-12.28513 -3.46875,-17.96875 2.79594,2.77536 6.71432,12.7587 9.4375,9.90625 -0.30683,-5.85356 -3.78598,-13.73033 2.21875,-17.625 2.25177,-1.4605 5.33596,-2.33803 8.34375,-2.46875 z m -66.96875,7.28125 c -0.4489,0.05 -0.98425,0.40782 -1.59375,1.125 -0.55726,0.6557 -1.16297,1.61562 -1.875,2.90625 -5.69617,10.32511 -4.97949,29.07624 -0.34375,38.71875 1.72736,3.59296 3.99845,6.37523 6.53125,8.25 0.0805,-12.38096 0.31046,-24.28553 0.15625,-32.28125 -0.19745,-10.23677 -0.45096,-18.98866 -2.875,-18.71875 z m 33.40625,7.09375 c -3.73109,7.05322 3.09881,14.45906 8.6875,17.0625 5.58868,2.60341 12.03025,8.57657 3.71875,11.5 -8.3115,2.92343 -12.81543,-3.05808 -14.65625,-9.34375 -1.84082,-6.28568 -1.26879,-13.56515 2.25,-19.21875 z m -94.4375,55.75 33.84375,32.65625 17.3125,-17.96875 7.53125,7.25 -25.4375,26.375 -41.375,-39.90625 z m -11.53125,11.9375 7.53125,7.25 -16.15625,16.75 9.34375,9.03125 13.46875,-13.96875 7.46875,7.1875 -13.46875,14 9.53125,9.15625 16.375,-17 7.53125,7.25 -24.53125,25.4375 -41.375,-39.875 z m -27.90625,35.34375 c 5.35872,-0.1807 10.52265,2.46131 14.3125,6 6.06376,5.66189 9.21438,12.31983 6.625,17.96875 -2.58939,5.64893 -7.03362,10.16642 -11.78125,15.15625 -2.09536,1.23291 0.10762,2.66466 1.125,3.65625 l 11.46875,11.0625 -8.09375,8.40625 -41.375,-39.875 c 3.79361,-3.85229 6.71176,-7.49722 10.375,-11.34375 2.19791,-2.30793 4.65935,-4.7034 7.75,-7.25 3.09066,-2.54661 6.37852,-3.67283 9.59375,-3.78125 z m 0.28125,11.15625 c -1.76449,0.0521 -3.47571,0.73814 -4.6875,2.15625 -1.33721,1.26112 -2.60839,2.54404 -3.875,3.875 -1.26669,1.33089 -2.51735,2.69708 -3.8125,4 l 12.625,12.1875 c 3.05326,-3.42548 6.72669,-6.36323 9.21875,-10.25 1.51019,-3.16095 -0.35271,-6.73639 -2.78125,-8.84375 l -0.28125,-0.28125 -0.25,-0.25 c -1.50208,-1.69595 -3.88762,-2.66069 -6.15625,-2.59375 z m -32.09375,21.78125 c 2.05853,0.0142 4.09769,0.53095 5.90625,1.65625 4.26616,2.44556 7.66753,6.49417 9.15625,11.1875 0.54455,3.17353 -1.18319,6.54331 -2.78125,8.9375 4.42173,-4.10163 11.70744,-4.71746 16.5625,-1.03125 4.11626,2.89776 7.33995,7.20234 8.9375,11.96875 0.90526,4.98999 -2.30725,9.57185 -5.46875,13.09375 -5.65714,5.92863 -11.3808,11.81219 -17.0625,17.71875 l 2.53125,-14.78125 c 3.10409,-3.38612 6.12326,-5.95944 8.9375,-9.59375 1.67431,-2.68415 1.08052,-6.26527 -1.03125,-8.53125 -2.20276,-2.99167 -6.37995,-5.15637 -10,-3.40625 -3.36023,1.553 -5.41341,4.79923 -8.0625,7.25 l -2.71875,2.84375 -7.46875,-7.1875 c 2.95948,-3.28038 6.42434,-6.18622 8.96875,-9.8125 2.20885,-4.14486 -0.90209,-9.12364 -4.875,-10.75 -2.35908,-1.09185 -5.36161,-0.4509 -6.90625,1.6875 -2.53976,2.91779 -5.34523,5.62385 -8,8.4375 l -14.96875,3.375 c 6.04849,-6.19481 12.71655,-13.35299 18.875,-19.4375 2.54767,-2.28934 6.03786,-3.64874 9.46875,-3.625 z m -14,21.875 29.28125,28.21875 -2.53125,13.84375 -40.65625,-39 z"
       id="rect3839"
       inkscape:connector-curvature="0"
       sodipodi:nodetypes="ccccccccccccscsccscsscsscsscscscccssscccssssccsscssscsccssscccccccccccccccccccccssscccccsssccccccccccccccccccccccccccccccccccccc" />
  </g>
</svg>
